<svg width="45" height="61" viewBox="0 0 45 61" fill="none" xmlns="http://www.w3.org/2000/svg">
<path d="M10.72 60.84C6.32 60.84 4.12 59.62 4.12 57.18C4.12 55.66 4.86 54.24 6.34 52.92C7.82 51.6 10.5 50.56 14.38 49.8C15.66 49.56 18.6 49.14 23.2 48.54C26.4 48.18 28.96 47.82 30.88 47.46C34.08 43.34 35.68 39.36 35.68 35.52C35.68 32.04 34.04 30.3 30.76 30.3C29.76 30.3 28.68 30.54 27.52 31.02C26.88 32.02 26.2 32.98 25.48 33.9C24.8 34.82 24.06 35.7 23.26 36.54C20.98 38.94 19.14 40.14 17.74 40.14C16.98 40.14 16.6 39.76 16.6 39C16.6 37.32 17.94 35.48 20.62 33.48C22.86 31.8 24.98 30.66 26.98 30.06C27.94 28.54 28.78 26.02 29.5 22.5C29.82 20.94 30.06 19.48 30.22 18.12C30.38 16.76 30.46 15.52 30.46 14.4C30.46 8.88 28.82 5.14 25.54 3.18C23.58 1.98 21.44 1.38 19.12 1.38C13.2 1.38 8.04 4.74 3.64 11.46C2.36 13.42 1.72 15.5 1.72 17.7C1.72 19.86 2.3 21.62 3.46 22.98C4.74 24.38 6.44 25.08 8.56 25.08C10.48 25.08 12.3 24.56 14.02 23.52C15.7 22.56 16.96 21.16 17.8 19.32C18.04 18.52 18.3 18.12 18.58 18.12C18.66 18.12 18.7 18.26 18.7 18.54C18.7 18.82 18.58 19.2 18.34 19.68C16.26 23.64 13.06 25.62 8.74 25.62C6.26 25.62 4.28 24.82 2.8 23.22C1.28 21.58 0.52 19.56 0.52 17.16C0.52 12.56 2.72 8.52 7.12 5.04C11.36 1.72 15.76 0.0599964 20.32 0.0599964C22.68 0.0599964 24.96 0.519996 27.16 1.44C31.36 3.28 33.46 7.5 33.46 14.1C33.46 18.78 31.76 23.98 28.36 29.7C28.72 29.62 29.08 29.56 29.44 29.52C29.8 29.48 30.16 29.46 30.52 29.46C32.84 29.46 34.66 30.2 35.98 31.68C37.26 33.08 37.9 34.94 37.9 37.26C37.9 40.3 36.74 43.46 34.42 46.74C38.1 45.9 40.88 44.94 42.76 43.86C43.68 43.3 44.14 42.66 44.14 41.94C44.14 41.86 44.12 41.8 44.08 41.76V41.58C44.08 41.42 44.16 41.34 44.32 41.34C44.56 41.34 44.68 41.5 44.68 41.82V41.88C44.68 42.76 44.1 43.56 42.94 44.28C41.9 44.88 40.62 45.46 39.1 46.02C37.58 46.58 35.82 47.12 33.82 47.64C30.98 51.36 27.58 54.42 23.62 56.82C19.26 59.5 14.96 60.84 10.72 60.84ZM9.46 59.94C11.66 59.94 14.38 59.14 17.62 57.54C18.94 56.9 20.22 56.22 21.46 55.5C22.7 54.78 23.9 53.98 25.06 53.1C26.94 51.74 28.64 50.18 30.16 48.42C29.16 48.58 27.88 48.78 26.32 49.02C24.76 49.26 22.92 49.5 20.8 49.74C19.88 49.86 18.72 50 17.32 50.16C15.92 50.36 14.32 50.66 12.52 51.06C11.76 51.22 11 51.48 10.24 51.84C9.52 52.24 8.78 52.7 8.02 53.22C6.18 54.46 5.26 55.72 5.26 57C5.26 57.92 5.74 58.66 6.7 59.22C7.54 59.7 8.46 59.94 9.46 59.94Z" fill="white"/>
</svg>
